<svg version="1.1" viewBox="0.0 0.0 640.0 360.0" fill="none" stroke="none" stroke-linecap="square" stroke-miterlimit="10" xmlns:xlink="http://www.w3.org/1999/xlink" xmlns="http://www.w3.org/2000/svg"><clipPath id="p.0"><path d="m0 0l640.0 0l0 360.0l-640.0 0l0 -360.0z" clip-rule="nonzero"/></clipPath><g clip-path="url(#p.0)"><path fill="#000000" fill-opacity="0.0" d="m0 0l640.0 0l0 360.0l-640.0 0z" fill-rule="evenodd"/><path fill="#1c1c1e" d="m0 -0.46981627l640.0 0l0 360.0l-640.0 0z" fill-rule="evenodd"/><path stroke="#000000" stroke-width="1.0" stroke-linejoin="round" stroke-linecap="butt" d="m0 -0.46981627l640.0 0l0 360.0l-640.0 0z" fill-rule="evenodd"/><path fill="#000000" fill-opacity="0.0" d="m104.69292 92.27034l430.61414 0l0 135.74803l-430.61414 0z" fill-rule="evenodd"/><path fill="#bb86fc" d="m178.54782 127.47721q0 -2.203125 0.140625 -3.3125q0.140625 -1.109375 0.8125 -2.546875q1.34375 -2.59375 7.484375 -2.59375q5.859375 0 7.296875 2.59375q0.78125 1.4375 0.921875 2.59375q0.140625 1.15625 0.140625 3.359375l0 44.453133q0 3.453125 0.578125 4.375q0.578125 0.90625 2.546875 0.90625q1.96875 0 2.640625 0.140625q0.671875 0.140625 1.625 0.8125q1.921875 1.25 1.921875 6.8125q0 6.0625 -1.921875 7.40625q-2.5 1.71875 -11.90625 0.5625q-7.390625 -0.953125 -9.59375 -4.890625q-2.6875 -4.703125 -2.6875 -14.96875l0 -45.703133zm31.391983 23.812508q0 -2.21875 0.140625 -3.3125q0.140625 -1.109375 0.8125 -2.546875q1.34375 -2.5 7.484375 -2.5q4.609375 0 6.53125 1.640625q1.640625 1.34375 1.734375 4.125q0.09375 0.953125 0.09375 2.78125l0 33.59375q0 2.21875 -0.140625 3.328125q-0.140625 1.09375 -0.921875 2.53125q-1.234375 2.5 -7.390625 2.5q-6.046875 0 -7.390625 -2.59375q-0.671875 -1.4375 -0.8125 -2.484375q-0.140625 -1.0625 -0.140625 -3.375l0 -33.6875zm15.78125 -17.8125q-0.71875 1.390625 -2.546875 1.96875q-1.8125 0.578125 -4.84375 0.578125q-3.015625 0 -4.84375 -0.578125q-1.828125 -0.578125 -2.546875 -2.015625q-0.71875 -1.4375 -0.859375 -2.53125q-0.140625 -1.109375 -0.140625 -3.3125076q0 -2.21875 0.140625 -3.3125q0.140625 -1.109375 0.8125 -2.453125q1.34375 -2.59375 7.484375 -2.59375q6.0625 0 7.296875 2.59375q0.78125 1.4375 0.921875 2.546875q0.140625 1.09375 0.140625 3.3125q0 2.2031326 -0.140625 3.3125076q-0.140625 1.09375 -0.875 2.484375zm38.073746 26.359375l-6.25 -0.390625l0 13.25q0 2.59375 0.8125 3.75q0.828125 1.140625 3.078125 1.140625q2.265625 0 3.453125 0.15625q1.203125 0.140625 2.546875 0.90625q2.21875 1.25 2.21875 6.421875q0 6.0625 -2.6875 7.40625q-1.453125 0.671875 -2.5625 0.8125q-1.09375 0.140625 -3.203125 0.140625q-9.984375 0 -15.171875 -4.515625q-5.1875 -4.515625 -5.1875 -15.265625l0 -14.203125q-1.8125 0.28125 -3.9375 0.28125q-2.109375 0 -3.5 -1.625q-1.390625 -1.625 -1.390625 -5.5625q0 -3.9375 0.484375 -5.71875q0.484375 -1.78125 1.34375 -2.546875q1.53125 -1.25 3.84375 -1.25l3.15625 0.390625l0 -9.890625q0 -2.203125 0.140625 -3.25q0.15625 -1.0625 0.921875 -2.3125076q1.25 -2.40625 7.390625 -2.40625q6.53125 0 7.78125 3.5625076q0.46875 1.53125 0.46875 4.890625l0 9.40625q4.234375 -0.390625 6.390625 -0.390625q2.15625 0 3.265625 0.15625q1.109375 0.140625 2.546875 0.90625q2.484375 1.25 2.484375 7.390625q0 6.046875 -2.578125 7.390625q-1.453125 0.671875 -2.5625 0.828125q-1.09375 0.140625 -3.296875 0.140625zm59.32022 -16.421875q5.671875 2.5 5.671875 6.046875q0 1.734375 -0.765625 3.265625q-0.765625 1.53125 -0.765625 1.625l-25.15625 56.265625q-0.765625 1.828125 -1.296875 2.78125q-0.53125 0.953125 -1.6875 1.8125q-1.140625 0.875 -2.875 0.875q-1.734375 0 -5.09375 -1.4375q-5.65625 -2.5 -5.65625 -5.953125q0 -2.3125 9.21875 -21.984375l-19.109375 -32.15625q-1.921875 -3.171875 -1.921875 -4.703125q0 -3.078125 5.1875 -6.15625q3.265625 -1.90625 5.078125 -1.90625q1.828125 0 2.984375 0.765625q1.15625 0.765625 1.671875 1.578125q0.53125 0.8125 5.28125 8.9375q4.765625 8.109375 9.078125 15.109375q0.484375 -1.53125 5.1875 -11.84375q4.703125 -10.328125 5.03125 -11.0q0.34375 -0.671875 1.109375 -1.640625q1.25 -1.625 3.5 -1.625q2.265625 0 5.328125 1.34375zm25.827728 34.171875q1.640625 1.640625 1.640625 6.71875l0 0.390625q0 2.296875 -0.15625 3.40625q-0.140625 1.109375 -1.0 2.640625q-1.4375 2.78125 -7.25 2.78125q-5.8125 0 -7.6875 -1.8125q-1.859375 -1.828125 -1.859375 -6.921875l0 -0.390625q0 -2.203125 0.140625 -3.34375q0.140625 -1.15625 0.90625 -2.59375q1.4375 -2.890625 7.25 -2.890625q5.8125 0 8.015625 2.015625zm39.939484 9.5q-3.65625 4.8125 -11.625 4.8125q-7.96875 0 -14.921875 -7.34375q-6.953125 -7.34375 -6.953125 -17.140625q0 -9.796875 7.0 -17.1875q7.015625 -7.390625 15.359375 -7.390625q3.265625 0 5.953125 1.203125q2.6875 1.203125 3.6875 2.21875q1.015625 1.0 1.59375 1.859375q0.28125 -2.6875 1.953125 -4.078125q1.6875 -1.390625 5.4375 -1.390625q3.75 0 5.46875 0.578125q1.734375 0.578125 2.453125 1.96875q0.71875 1.390625 0.859375 2.453125q0.140625 1.046875 0.140625 3.25l0 39.75q0 11.03125 -7.6875 17.796875q-7.671875 6.78125 -17.265625 6.78125q-7.296875 0 -13.921875 -3.5625q-6.625 -3.546875 -6.625 -6.421875q0 -3.75 2.890625 -6.625q1.8125 -2.015625 2.8125 -2.796875q1.015625 -0.765625 2.359375 -0.765625q1.34375 0 2.78125 1.15625q4.609375 3.5625 9.984375 3.5625q3.65625 0 5.953125 -2.890625q2.3125 -2.875 2.3125 -6.90625l0 -2.890625zm-17.09375 -19.625q0 3.125 2.453125 5.625q2.453125 2.484375 5.953125 2.484375q3.5 0 5.796875 -2.53125q2.3125 -2.546875 2.3125 -5.5625q0 -3.03125 -2.21875 -5.671875q-2.203125 -2.640625 -5.953125 -2.640625q-3.734375 0 -6.046875 2.59375q-2.296875 2.578125 -2.296875 5.703125zm73.25372 19.625q-3.65625 4.8125 -11.625 4.8125q-7.96875 0 -14.921875 -7.34375q-6.953125 -7.34375 -6.953125 -17.140625q0 -9.796875 7.0 -17.1875q7.015625 -7.390625 15.359375 -7.390625q3.265625 0 5.953125 1.203125q2.6875 1.203125 3.6875 2.21875q1.015625 1.0 1.59375 1.859375q0.28125 -2.6875 1.953125 -4.078125q1.6875 -1.390625 5.4375 -1.390625q3.75 0 5.46875 0.578125q1.734375 0.578125 2.453125 1.96875q0.71875 1.390625 0.859375 2.453125q0.140625 1.046875 0.140625 3.25l0 39.75q0 11.03125 -7.6875 17.796875q-7.671875 6.78125 -17.265625 6.78125q-7.296875 0 -13.921875 -3.5625q-6.625 -3.546875 -6.625 -6.421875q0 -3.75 2.890625 -6.625q1.8125 -2.015625 2.8125 -2.796875q1.015625 -0.765625 2.359375 -0.765625q1.34375 0 2.78125 1.15625q4.609375 3.5625 9.984375 3.5625q3.65625 0 5.953125 -2.890625q2.3125 -2.875 2.3125 -6.90625l0 -2.890625zm-17.09375 -19.625q0 3.125 2.453125 5.625q2.453125 2.484375 5.953125 2.484375q3.5 0 5.796875 -2.53125q2.3125 -2.546875 2.3125 -5.5625q0 -3.03125 -2.21875 -5.671875q-2.203125 -2.640625 -5.953125 -2.640625q-3.734375 0 -6.046875 2.59375q-2.296875 2.578125 -2.296875 5.703125z" fill-rule="nonzero"/></g></svg>